<svg width="34" height="25" viewBox="0 0 34 25" fill="none" xmlns="http://www.w3.org/2000/svg">
<path fill-rule="evenodd" clip-rule="evenodd" d="M20.9812 8.40785H25.3892H25.39C25.582 8.40915 25.762 8.5068 25.8765 8.67345C25.9921 8.8414 26.0291 9.05753 25.9766 9.25804L22.7405 21.6306C22.2063 23.6251 20.5321 24.9961 18.6291 25H7.37086C5.4678 24.9963 3.79372 23.6253 3.25955 21.6306L0.0233635 9.25804C-0.0291017 9.05752 0.00786018 8.84141 0.12352 8.67345C0.237986 8.5068 0.418046 8.40915 0.610016 8.40785H5.01803L8.049 1.37213C8.19564 1.04664 8.55455 0.908628 8.85621 1.06356C9.15669 1.21848 9.28904 1.60778 9.15311 1.93849L6.36658 8.40792H19.6291L16.8425 1.93849C16.7066 1.60778 16.839 1.21849 17.1406 1.06356C17.4411 0.908635 17.8 1.04664 17.9478 1.37213L20.9812 8.40785ZM18.2699 22.3333C19.505 22.3356 20.5928 21.4908 20.9374 20.2623L23.6786 10.3333H2.63095L5.37214 20.251C5.71236 21.484 6.80126 22.3344 8.03965 22.3333H18.2699Z" fill="white"/>
<path d="M26 15C29.866 15 33 11.866 33 8C33 4.13401 29.866 1 26 1C22.134 1 19 4.13401 19 8C19 11.866 22.134 15 26 15Z" fill="url(#paint0_linear)" stroke="white" stroke-width="0.55"/>
<defs>
<linearGradient id="paint0_linear" x1="14.0129" y1="8.9634" x2="27.0917" y2="20.2135" gradientUnits="userSpaceOnUse">
<stop stop-color="#D369D6"/>
<stop offset="1" stop-color="#EB0A3C"/>
</linearGradient>
</defs>
</svg>
